<svg width="50" height="50" viewBox="0 0 50 50" fill="none" xmlns="http://www.w3.org/2000/svg">
<path fill-rule="evenodd" clip-rule="evenodd" d="M45.8332 25C45.8332 36.5059 36.5058 45.8333 24.9998 45.8333C13.4939 45.8333 4.1665 36.5059 4.1665 25C4.1665 13.494 13.4939 4.16663 24.9998 4.16663C36.5058 4.16663 45.8332 13.494 45.8332 25ZM37.4998 32.4404C37.4998 35.8922 31.9034 39.5833 24.9998 39.5833C18.0963 39.5833 12.4998 35.8922 12.4998 32.4404C12.4998 28.9887 18.0963 27.0833 24.9998 27.0833C31.9034 27.0833 37.4998 28.9887 37.4998 32.4404ZM24.9998 22.9166C28.4516 22.9166 31.2498 20.1184 31.2498 16.6666C31.2498 13.2148 28.4516 10.4166 24.9998 10.4166C21.5481 10.4166 18.7498 13.2148 18.7498 16.6666C18.7498 20.1184 21.5481 22.9166 24.9998 22.9166Z" fill="#D9D9D9"/>
</svg>
