<svg>

    <symbol id='icon-plus' width="32" height="32" viewBox="0 0 32 32" fill="none" xmlns="http://www.w3.org/2000/svg">
    <path fill-rule="evenodd" clip-rule="evenodd" d="M16 29.3332C23.3638 29.3332 29.3333 23.3636 29.3333 15.9998C29.3333 8.63604 23.3638 2.6665 16 2.6665C8.63619 2.6665 2.66666 8.63604 2.66666 15.9998C2.66666 23.3636 8.63619 29.3332 16 29.3332ZM14.6667 14.6665V9.33317H17.3333V14.6665H22.6667V17.3332H17.3333V22.6665H14.6667V17.3332H9.33332V14.6665H14.6667Z" fill="white"/>
    </symbol>

    <symbol  id='icon-minus' width="32" height="32" viewBox="0 0 32 32" fill="none" xmlns="http://www.w3.org/2000/svg">
    <path fill-rule="evenodd" clip-rule="evenodd" d="M15.9998 29.3333C23.3636 29.3333 29.3332 23.3638 29.3332 16C29.3332 8.63616 23.3636 2.66663 15.9998 2.66663C8.63604 2.66663 2.6665 8.63616 2.6665 16C2.6665 23.3638 8.63604 29.3333 15.9998 29.3333ZM9.33317 14.6666V17.3333H22.6665V14.6666H9.33317Z" fill="white"/>
    </symbol>

    <symbol id='icon-calendar' width="16" height="16" viewBox="0 0 16 16" fill="none" xmlns="http://www.w3.org/2000/svg">
        <path d="M6.5 1.625C6.5 0.796573 5.82843 0.125 5 0.125C4.17157 0.125 3.5 0.796573 3.5 1.625C1.84315 1.625 0.5 2.96815 0.5 4.625H15.5C15.5 2.96815 14.1569 1.625 12.5 1.625C12.5 0.796573 11.8284 0.125 11 0.125C10.1716 0.125 9.5 0.796573 9.5 1.625H6.5Z" fill="#202020"/>
        <path fill-rule="evenodd" clip-rule="evenodd" d="M0.5 6.125H15.5V10.325C15.5 12.0052 15.5 12.8452 15.173 13.487C14.8854 14.0515 14.4265 14.5104 13.862 14.798C13.2202 15.125 12.3802 15.125 10.7 15.125H5.3C3.61984 15.125 2.77976 15.125 2.13803 14.798C1.57354 14.5104 1.1146 14.0515 0.82698 13.487C0.5 12.8452 0.5 12.0052 0.5 10.325V6.125ZM9.5 10.325C9.5 9.90496 9.5 9.69494 9.58175 9.53451C9.65365 9.39338 9.76838 9.27865 9.90951 9.20675C10.0699 9.125 10.28 9.125 10.7 9.125H11.3C11.72 9.125 11.9301 9.125 12.0905 9.20675C12.2316 9.27865 12.3463 9.39338 12.4183 9.53451C12.5 9.69494 12.5 9.90496 12.5 10.325V10.925C12.5 11.345 12.5 11.5551 12.4183 11.7155C12.3463 11.8566 12.2316 11.9713 12.0905 12.0433C11.9301 12.125 11.72 12.125 11.3 12.125H10.7C10.28 12.125 10.0699 12.125 9.90951 12.0433C9.76838 11.9713 9.65365 11.8566 9.58175 11.7155C9.5 11.5551 9.5 11.345 9.5 10.925V10.325Z" fill="#202020"/>
    </symbol>
    <symbol id='icon-time' width="16" height="16" viewBox="0 0 16 16" fill="none" xmlns="http://www.w3.org/2000/svg">
        <path fill-rule="evenodd" clip-rule="evenodd" d="M8 15.5C12.1421 15.5 15.5 12.1421 15.5 8C15.5 3.85786 12.1421 0.5 8 0.5C3.85786 0.5 0.5 3.85786 0.5 8C0.5 12.1421 3.85786 15.5 8 15.5ZM7.25 3.5V8C7.25 8.41421 7.58579 8.75 8 8.75H11.75V7.25H8.75V3.5H7.25Z" fill="#202020"/>
    </symbol>

    <symbol id='icon-level' width="18.000000" height="18.000000" viewBox="0 0 18 18" fill="none" xmlns="http://www.w3.org/2000/svg" xmlns:xlink="http://www.w3.org/1999/xlink">
	    <defs/>
	    <path id="Vector" d="M15 2.62C15.29 2.62 15.58 2.74 15.79 2.95C16 3.16 16.12 3.45 16.12 3.75L16.12 14.25C16.12 14.54 16 14.83 15.79 15.04C15.58 15.25 15.29 15.37 15 15.37C14.7 15.37 14.41 15.25 14.2 15.04C13.99 14.83 13.87 14.54 13.87 14.25L13.87 3.75C13.87 3.45 13.99 3.16 14.2 2.95C14.41 2.74 14.7 2.62 15 2.62Z" fill="#D9D9D9" fill-opacity="1.000000" fill-rule="evenodd"/>
	    <path id="Vector" d="M12 4.87C12.29 4.87 12.58 4.99 12.79 5.2C13 5.41 13.12 5.7 13.12 6L13.12 14.25C13.12 14.54 13 14.83 12.79 15.04C12.58 15.25 12.29 15.37 12 15.37C11.7 15.37 11.41 15.25 11.2 15.04C10.99 14.83 10.87 14.54 10.87 14.25L10.87 6C10.87 5.7 10.99 5.41 11.2 5.2C11.41 4.99 11.7 4.87 12 4.87Z" fill="#D9D9D9" fill-opacity="1.000000" fill-rule="evenodd"/>
	    <path id="Vector" d="M9 7.12C9.29 7.12 9.58 7.24 9.79 7.45C10 7.66 10.12 7.95 10.12 8.25L10.12 14.25C10.12 14.54 10 14.83 9.79 15.04C9.58 15.25 9.29 15.37 9 15.37C8.7 15.37 8.41 15.25 8.2 15.04C7.99 14.83 7.87 14.54 7.87 14.25L7.87 8.25C7.87 7.95 7.99 7.66 8.2 7.45C8.41 7.24 8.7 7.12 9 7.12Z" fill="#00C1FF" fill-opacity="1.000000" fill-rule="evenodd"/>
	    <path id="Vector" d="M6 9.37C6.29 9.37 6.58 9.49 6.79 9.7C7 9.91 7.12 10.2 7.12 10.5L7.12 14.25C7.12 14.54 7 14.83 6.79 15.04C6.58 15.25 6.29 15.37 6 15.37C5.7 15.37 5.41 15.25 5.2 15.04C4.99 14.83 4.87 14.54 4.87 14.25L4.87 10.5C4.87 10.2 4.99 9.91 5.2 9.7C5.41 9.49 5.7 9.37 6 9.37Z" fill="#00C1FF" fill-opacity="1.000000" fill-rule="evenodd"/>
	    <path id="Vector" d="M3 11.62C3.29 11.62 3.58 11.74 3.79 11.95C4 12.16 4.12 12.45 4.12 12.75L4.12 14.25C4.12 14.54 4 14.83 3.79 15.04C3.58 15.25 3.29 15.37 3 15.37C2.7 15.37 2.41 15.25 2.2 15.04C1.99 14.83 1.87 14.54 1.87 14.25L1.87 12.75C1.87 12.45 1.99 12.16 2.2 11.95C2.41 11.74 2.7 11.62 3 11.62Z" fill="#00C1FF" fill-opacity="1.000000" fill-rule="evenodd"/>
    </symbol>


    <symbol 
    id='icon-user'
    width="36" height="36" viewBox="0 0 36 36" fill="none" xmlns="http://www.w3.org/2000/svg" xmlns:xlink="http://www.w3.org/1999/xlink">
	    <defs/>
	    <path  d="M40.83 20C40.83 31.5 31.5 40.83 19.99 40.83C8.49 40.83 -0.84 31.5 -0.84 20C-0.84 8.49 8.49 -0.84 19.99 -0.84C31.5 -0.84 40.83 8.49 40.83 20ZM32.49 27.44C32.49 30.89 26.9 34.58 19.99 34.58C13.09 34.58 7.49 30.89 7.49 27.44C7.49 23.98 13.09 22.08 19.99 22.08C26.9 22.08 32.49 23.98 32.49 27.44ZM19.99 17.91C23.45 17.91 26.24 15.11 26.24 11.66C26.24 8.21 23.45 5.41 19.99 5.41C16.54 5.41 13.74 8.21 13.74 11.66C13.74 15.11 16.54 17.91 19.99 17.91Z" fill="#D9D9D9" fill-opacity="1.000000" fill-rule="evenodd"/>
    </symbol>

    <symbol
        width="57.000000"
        height="57.000000"
        viewBox="0 0 57 57"
        fill="none"
        xmlns="http://www.w3.org/2000/svg"
        xmlns:xlink="http://www.w3.org/1999/xlink"
        >
        <defs />
        <path
            id="icon-success"
            d="M28 56.33C43.64 56.33 56.33 43.64 56.33 28C56.33 12.35 43.64 -0.34 28 -0.34C12.35 -0.34 -0.34 12.35 -0.34 28C-0.34 43.64 12.35 56.33 28 56.33ZM27.75 39.74L43.33 21.33L39.01 17.66L25.55 33.57L17.8 24.71L13.54 28.44L23.46 39.78C24 40.4 24.79 40.75 25.61 40.74C26.44 40.74 27.22 40.37 27.75 39.74Z"
            fill="#BCEC30"
            fill-opacity="1.000000"
            fill-rule="evenodd"
        />
    </symbol>
    
          <simbol  width="20" height="20" viewBox="0 0 20 20" fill="none" xmlns="http://www.w3.org/2000/svg">
                        <path id="icon-checked" fill-rule="evenodd" clip-rule="evenodd" d="M10 20C15.5228 20 20 15.5228 20 10C20 4.47715 15.5228 0 10 0C4.47715 0 0 4.47715 0 10C0 15.5228 4.47715 20 10 20ZM9.91339 14.1459L15.4134 7.64594L13.8866 6.35406L9.1373 11.9669L6.40258 8.8415L4.89742 10.1585L8.39742 14.1585C8.58922 14.3777 8.86704 14.5024 9.15829 14.5C9.44953 14.4976 9.72525 14.3683 9.91339 14.1459Z" fill="#BCEC30" />
                    </simbol>
<simbol id="input-radio" width="20.000000" height="20.000000" viewBox="0 0 20 20" fill="none" xmlns="http://www.w3.org/2000/svg" xmlns:xlink="http://www.w3.org/1999/xlink">
	<defs/>
	<circle id="Ellipse 3845" cx="10.000000" cy="10.000000" r="9.500000" stroke="#000000" stroke-opacity="1.000000" stroke-width="1.000000"/>
</ssimbol >

    <symbol id="icon-arrow" width="14" height="9" viewBox="0 0 14 9" fill="none" xmlns="http://www.w3.org/2000/svg" xmlns:xlink="http://www.w3.org/1999/xlink">
	  <defs/>
	  <path id="Rectangle 3765" d="M12.06 0.74L5.67 7.12L-0.71 0.74L0.7 -0.68L6.38 5L5.67 5.71L4.97 5L10.64 -0.68L12.06 0.74Z" fill="#000000" fill-opacity="1.000000" fill-rule="evenodd"/>
    </symbol>



 

    <symbol id='icon-star' width="19.000000" height="19.000000" viewBox="0 0 19 19" fill="none" xmlns="http://www.w3.org/2000/svg" xmlns:xlink="http://www.w3.org/1999/xlink">
	    <defs/>
	    <path id="Icon" d="M8.46 0.36C8.62 -0.3 8.69 -0.63 8.82 -0.71C8.93 -0.77 9.06 -0.77 9.17 -0.71C9.3 -0.63 9.37 -0.3 9.53 0.36L10.29 3.6C10.58 4.8 10.72 5.4 11.03 5.89C11.3 6.32 11.67 6.69 12.1 6.96C12.59 7.27 13.19 7.41 14.39 7.7L17.63 8.46C18.29 8.62 18.62 8.69 18.7 8.82C18.76 8.93 18.76 9.06 18.7 9.17C18.62 9.3 18.29 9.37 17.63 9.53L14.39 10.29C13.19 10.58 12.59 10.72 12.1 11.03C11.67 11.3 11.3 11.67 11.03 12.1C10.72 12.59 10.58 13.19 10.29 14.39L9.53 17.63C9.37 18.29 9.3 18.62 9.17 18.7C9.06 18.76 8.93 18.76 8.82 18.7C8.69 18.62 8.62 18.29 8.46 17.63L7.7 14.39C7.41 13.19 7.27 12.59 6.96 12.1C6.69 11.67 6.32 11.3 5.89 11.03C5.4 10.72 4.8 10.58 3.6 10.29L0.36 9.53C-0.3 9.37 -0.63 9.3 -0.71 9.17C-0.77 9.06 -0.77 8.93 -0.71 8.82C-0.63 8.69 -0.3 8.62 0.36 8.46L3.6 7.7C4.8 7.41 5.4 7.27 5.89 6.96C6.32 6.69 6.69 6.32 6.96 5.89C7.27 5.4 7.41 4.8 7.7 3.6L8.46 0.36Z" fill="#000000" fill-opacity="1.000000" fill-rule="nonzero"/>
    </symbol>

    <symbol id='icon-form-logo' width="222" height="30" viewBox="0 0 222 30" fill="none" xmlns="http://www.w3.org/2000/svg">
        <path d="M39.1828 6.01197C39.1828 8.78397 40.6108 10.436 42.4588 11.752L44.8388 13.46C46.0988 14.356 47.0228 15.392 47.0228 16.96C47.0228 18.36 46.0988 19.2 44.6428 19.2C43.2148 19.2 42.2628 18.164 42.2628 16.484V15H38.9028V16.68C38.9028 20.292 41.4788 22.28 44.6428 22.28C47.8068 22.28 50.3828 20.376 50.3828 16.54C50.3828 13.852 48.8988 12.2 47.0788 10.884L44.6148 9.11997C43.4388 8.27997 42.5428 7.41197 42.5428 6.01197C42.5428 4.58397 43.3828 3.79997 44.6148 3.79997C45.9308 3.79997 46.7428 4.61197 46.7428 6.40397V7.71997H50.1028V6.31997C50.1028 2.53997 47.6668 0.719971 44.6148 0.719971C41.6188 0.719971 39.1828 2.23197 39.1828 6.01197Z" fill="black"/>
        <path d="M57.2527 0.99997H53.8927V22H57.2527V14.636L63.2727 22H67.4727L60.9487 14.356L67.1087 7.99997H62.6847L57.2527 14.104V0.99997Z" fill="black"/>
        <path d="M76.9207 23.456L82.2127 7.99997H78.8527L75.3247 18.78L71.8247 7.99997H68.4647L73.7287 23.428C72.9167 25.388 71.9367 26.312 70.3687 26.312C69.6967 26.312 69.0527 26.172 68.5207 26.004V28.972C69.0527 29.14 69.8647 29.28 70.6767 29.28C74.2327 29.28 75.7447 26.9 76.9207 23.456Z" fill="black"/>
        <path d="M89.2321 22V13.32H94.6641V10.24H89.2321V4.07997H95.5041V0.99997H85.8721V22H89.2321Z" fill="black"/>
        <path d="M100.253 5.19997C101.485 5.19997 102.353 4.27597 102.353 3.09997C102.353 1.89597 101.485 0.99997 100.253 0.99997C99.0487 0.99997 98.1527 1.89597 98.1527 3.09997C98.1527 4.27597 99.0487 5.19997 100.253 5.19997ZM101.933 22V7.99997H98.5727V22H101.933Z" fill="black"/>
        <path d="M110.606 17.212V10.94H114.246V7.99997H110.606V3.79997H107.246V7.99997H105.006V10.94H107.246V17.436C107.246 21.188 109.262 22.28 112.034 22.28C112.846 22.28 113.742 22.112 114.246 21.944V18.948C113.77 19.116 113.182 19.2 112.706 19.2C111.25 19.2 110.606 18.584 110.606 17.212Z" fill="black"/>
        <path d="M127.116 14.3V22H130.476V13.628C130.476 9.67997 128.236 7.71997 125.268 7.71997C123.532 7.71997 122.104 8.53197 121.236 10.016V7.99997H117.876V22H121.236V14.3C121.236 11.948 122.356 10.66 124.176 10.66C125.996 10.66 127.116 11.948 127.116 14.3Z" fill="black"/>
        <path d="M147.667 16.12C147.695 15.756 147.723 15.392 147.723 15C147.723 10.716 144.783 7.71997 140.779 7.71997C136.775 7.71997 133.835 10.716 133.835 15C133.835 19.284 136.775 22.28 140.779 22.28C144.083 22.28 146.519 20.712 147.359 17.8H143.719C143.271 18.78 142.403 19.34 140.919 19.34C138.847 19.34 137.503 18.164 137.139 16.12H147.667ZM140.779 10.66C142.739 10.66 144.027 11.78 144.391 13.74H137.167C137.531 11.78 138.819 10.66 140.779 10.66Z" fill="black"/>
        <path d="M162.267 17.968C162.267 12.2 154.035 14.496 154.035 11.808C154.035 10.912 154.875 10.38 156.135 10.38C157.507 10.38 158.515 11.276 158.515 12.452H162.015C162.015 9.79197 159.495 7.71997 156.135 7.71997C153.027 7.71997 150.647 9.34397 150.647 11.948C150.647 17.66 158.795 15.14 158.795 18.108C158.795 19.144 157.955 19.648 156.555 19.648C155.043 19.648 153.895 18.892 153.895 17.38H150.395C150.395 20.488 153.055 22.28 156.555 22.28C159.831 22.28 162.267 20.628 162.267 17.968Z" fill="black"/>
        <path d="M176.936 17.968C176.936 12.2 168.704 14.496 168.704 11.808C168.704 10.912 169.544 10.38 170.804 10.38C172.176 10.38 173.184 11.276 173.184 12.452H176.684C176.684 9.79197 174.164 7.71997 170.804 7.71997C167.696 7.71997 165.316 9.34397 165.316 11.948C165.316 17.66 173.464 15.14 173.464 18.108C173.464 19.144 172.624 19.648 171.224 19.648C169.712 19.648 168.564 18.892 168.564 17.38H165.064C165.064 20.488 167.724 22.28 171.224 22.28C174.5 22.28 176.936 20.628 176.936 17.968Z" fill="black"/>
        <path d="M184.933 22V14.16H187.705C191.149 14.16 193.613 12.032 193.613 8.13997V6.73997C193.613 2.98797 191.149 0.99997 187.705 0.99997H181.573V22H184.933ZM187.425 4.07997C189.161 4.07997 190.253 4.89197 190.253 7.01997V7.85997C190.253 10.156 189.161 11.08 187.425 11.08H184.933V4.07997H187.425Z" fill="black"/>
        <path d="M200.341 7.99997H196.981V22H200.341V14.86C200.341 12.508 201.797 11.22 204.289 11.22C204.849 11.22 205.353 11.304 205.745 11.444V7.77597C205.577 7.71997 205.297 7.71997 205.045 7.71997C203.001 7.71997 201.349 8.61597 200.341 10.268V7.99997Z" fill="black"/>
        <path d="M214.72 22.28C218.808 22.28 221.86 19.284 221.86 15C221.86 10.716 218.808 7.71997 214.72 7.71997C210.632 7.71997 207.58 10.716 207.58 15C207.58 19.284 210.632 22.28 214.72 22.28ZM214.72 19.2C212.564 19.2 210.94 17.52 210.94 15C210.94 12.48 212.564 10.8 214.72 10.8C216.876 10.8 218.5 12.48 218.5 15C218.5 17.52 216.876 19.2 214.72 19.2Z" fill="black"/>
        <path d="M3.68844 22.4581C1.54195 23.698 0 22.6648 0 20.827C0 18.8705 0 13.0003 0 13.0003C0 13.0003 0 7.13012 0 5.1737C0 3.33591 1.54099 2.30269 3.68844 3.54255C7.03156 5.47314 17.06 11.2668 17.06 11.2668C18.3934 12.037 18.3934 13.9628 17.06 14.7329C17.06 14.7338 7.03156 20.5275 3.68844 22.4581Z" fill="#00C1FF"/>
        <path d="M14.7265 22.4574C12.58 23.6972 11.038 22.664 11.038 20.8262C11.038 18.8698 11.038 12.9996 11.038 12.9996C11.038 12.9996 11.038 7.12939 11.038 5.17297C11.038 3.33518 12.579 2.30196 14.7265 3.54182C17.9959 5.43032 27.8043 11.0968 27.8043 11.0968C29.2688 11.9425 29.2688 14.0567 27.8043 14.9024C27.8034 14.9024 17.9959 20.5689 14.7265 22.4574Z" fill="#BCEC30"/>
        <mask id="mask0_0_1" style="mask-type:alpha" maskUnits="userSpaceOnUse" x="11" y="3" width="18" height="20">
        <path d="M14.7265 22.4574C12.58 23.6972 11.038 22.664 11.038 20.8262C11.038 18.8698 11.038 12.9996 11.038 12.9996C11.038 12.9996 11.038 7.12939 11.038 5.17297C11.038 3.33518 12.579 2.30196 14.7265 3.54182C17.9959 5.43032 27.8043 11.0968 27.8043 11.0968C29.2688 11.9425 29.2688 14.0567 27.8043 14.9024C27.8034 14.9024 17.9959 20.5689 14.7265 22.4574Z" fill="#6FE4FF"/>
        </mask>
        <g mask="url(#mask0_0_1)">
        <g filter="url(#filter0_f_0_1)">
        <path d="M3.68893 22.4584C1.54244 23.6982 0.000488281 22.665 0.000488281 20.8272C0.000488281 18.8708 0.000488281 13.0006 0.000488281 13.0006C0.000488281 13.0006 0.000488281 7.13036 0.000488281 5.17394C0.000488281 3.33615 1.54148 2.30294 3.68893 3.5428C7.03205 5.47339 17.0605 11.2671 17.0605 11.2671C18.3939 12.0372 18.3939 13.963 17.0605 14.7331C17.0605 14.7341 7.03205 20.5278 3.68893 22.4584Z" fill="#99D100"/>
        </g>
        </g>
        <defs>
        <filter id="filter0_f_0_1" x="-1.46075" y="1.53973" width="20.9825" height="22.9218" filterUnits="userSpaceOnUse" color-interpolation-filters="sRGB">
        <feFlood flood-opacity="0" result="BackgroundImageFix"/>
        <feBlend mode="normal" in="SourceGraphic" in2="BackgroundImageFix" result="shape"/>
        <feGaussianBlur stdDeviation="0.730621" result="effect1_foregroundBlur_0_1"/>
        </filter>
        </defs>
    </symbol>
    <symbol
          id="icon-notice"
          width="288"
          height="121"
          viewBox="0 0 288 121"
          fill="none"
          xmlns="http://www.w3.org/2000/svg"
        >
          <rect width="288" height="102" rx="5" fill="#BCEC30" />
          <path
            d="M25.7812 38.7812L36.9844 21.25H40V44H36.9844V26.4531L25.7812 44H22.7812V21.25H25.7812V38.7812ZM51.3594 35.9219H48.25V34.1406H51.125C51.9271 34.1406 52.5625 34.0417 53.0312 33.8438C53.5 33.6354 53.8333 33.349 54.0312 32.9844C54.2292 32.6198 54.3281 32.1927 54.3281 31.7031C54.3281 31.2656 54.2135 30.8542 53.9844 30.4688C53.7656 30.0729 53.4115 29.7552 52.9219 29.5156C52.4323 29.2656 51.776 29.1406 50.9531 29.1406C50.2865 29.1406 49.6823 29.2604 49.1406 29.5C48.599 29.7292 48.1667 30.0469 47.8438 30.4531C47.5312 30.849 47.375 31.2969 47.375 31.7969H44.4844C44.4844 30.7656 44.776 29.8802 45.3594 29.1406C45.9531 28.3906 46.7396 27.8125 47.7188 27.4062C48.7083 27 49.7865 26.7969 50.9531 26.7969C51.9323 26.7969 52.8073 26.9062 53.5781 27.125C54.3594 27.3333 55.0208 27.6458 55.5625 28.0625C56.1042 28.4688 56.5156 28.9792 56.7969 29.5938C57.0885 30.1979 57.2344 30.901 57.2344 31.7031C57.2344 32.276 57.099 32.8177 56.8281 33.3281C56.5573 33.8385 56.1667 34.2917 55.6562 34.6875C55.1458 35.0729 54.526 35.375 53.7969 35.5938C53.0781 35.8125 52.2656 35.9219 51.3594 35.9219ZM48.25 34.8281H51.3594C52.3698 34.8281 53.2604 34.9271 54.0312 35.125C54.8021 35.3125 55.4479 35.5938 55.9688 35.9688C56.4896 36.3438 56.8802 36.8073 57.1406 37.3594C57.4115 37.901 57.5469 38.526 57.5469 39.2344C57.5469 40.026 57.3854 40.7396 57.0625 41.375C56.75 42 56.3021 42.5312 55.7188 42.9688C55.1354 43.4062 54.4375 43.7396 53.625 43.9688C52.8229 44.1979 51.9323 44.3125 50.9531 44.3125C49.8594 44.3125 48.7969 44.125 47.7656 43.75C46.7344 43.375 45.8854 42.7969 45.2188 42.0156C44.5521 41.224 44.2188 40.2188 44.2188 39H47.1094C47.1094 39.5104 47.2708 39.9948 47.5938 40.4531C47.9167 40.9115 48.3646 41.2812 48.9375 41.5625C49.5208 41.8438 50.1927 41.9844 50.9531 41.9844C51.7656 41.9844 52.4427 41.8594 52.9844 41.6094C53.526 41.3594 53.9323 41.026 54.2031 40.6094C54.4844 40.1927 54.625 39.7396 54.625 39.25C54.625 38.6146 54.5 38.1042 54.25 37.7188C54 37.3333 53.6146 37.0521 53.0938 36.875C52.5833 36.6875 51.9271 36.5938 51.125 36.5938H48.25V34.8281ZM71.0156 40.1562L76.7656 27.0938H79.5469L72.0156 44H70.0156L62.5156 27.0938H65.2969L71.0156 40.1562ZM64.4531 27.0938V44H61.5625V27.0938H64.4531ZM77.4844 44V27.0938H80.3906V44H77.4844ZM92.0625 44.3125C90.8854 44.3125 89.8177 44.1146 88.8594 43.7188C87.9115 43.3125 87.0938 42.7448 86.4062 42.0156C85.7292 41.2865 85.2083 40.4219 84.8438 39.4219C84.4792 38.4219 84.2969 37.3281 84.2969 36.1406V35.4844C84.2969 34.1094 84.5 32.8854 84.9062 31.8125C85.3125 30.7292 85.8646 29.8125 86.5625 29.0625C87.2604 28.3125 88.0521 27.7448 88.9375 27.3594C89.8229 26.974 90.7396 26.7812 91.6875 26.7812C92.8958 26.7812 93.9375 26.9896 94.8125 27.4062C95.6979 27.8229 96.4219 28.4062 96.9844 29.1562C97.5469 29.8958 97.9635 30.7708 98.2344 31.7812C98.5052 32.7812 98.6406 33.875 98.6406 35.0625V36.3594H86.0156V34H95.75V33.7812C95.7083 33.0312 95.5521 32.3021 95.2812 31.5938C95.0208 30.8854 94.6042 30.3021 94.0312 29.8438C93.4583 29.3854 92.6771 29.1562 91.6875 29.1562C91.0312 29.1562 90.4271 29.2969 89.875 29.5781C89.3229 29.849 88.849 30.2552 88.4531 30.7969C88.0573 31.3385 87.75 32 87.5312 32.7812C87.3125 33.5625 87.2031 34.4635 87.2031 35.4844V36.1406C87.2031 36.9427 87.3125 37.6979 87.5312 38.4062C87.7604 39.1042 88.0885 39.7188 88.5156 40.25C88.9531 40.7812 89.4792 41.1979 90.0938 41.5C90.7188 41.8021 91.4271 41.9531 92.2188 41.9531C93.2396 41.9531 94.1042 41.7448 94.8125 41.3281C95.5208 40.9115 96.1406 40.3542 96.6719 39.6562L98.4219 41.0469C98.0573 41.599 97.5938 42.125 97.0312 42.625C96.4688 43.125 95.776 43.5312 94.9531 43.8438C94.1406 44.1562 93.1771 44.3125 92.0625 44.3125ZM113.484 34.4219V36.7656H104.547V34.4219H113.484ZM105.156 27.0938V44H102.266V27.0938H105.156ZM115.828 27.0938V44H112.922V27.0938H115.828ZM123.609 39.4219L131.406 27.0938H134.312V44H131.406V31.6719L123.609 44H120.734V27.0938H123.609V39.4219ZM153.656 41.9375C154.344 41.9375 154.979 41.7969 155.562 41.5156C156.146 41.2344 156.625 40.849 157 40.3594C157.375 39.8594 157.589 39.2917 157.641 38.6562H160.391C160.339 39.6562 160 40.5885 159.375 41.4531C158.76 42.3073 157.953 43 156.953 43.5312C155.953 44.0521 154.854 44.3125 153.656 44.3125C152.385 44.3125 151.276 44.0885 150.328 43.6406C149.391 43.1927 148.609 42.5781 147.984 41.7969C147.37 41.0156 146.906 40.1198 146.594 39.1094C146.292 38.0885 146.141 37.0104 146.141 35.875V35.2188C146.141 34.0833 146.292 33.0104 146.594 32C146.906 30.9792 147.37 30.0781 147.984 29.2969C148.609 28.5156 149.391 27.901 150.328 27.4531C151.276 27.0052 152.385 26.7812 153.656 26.7812C154.979 26.7812 156.135 27.0521 157.125 27.5938C158.115 28.125 158.891 28.8542 159.453 29.7812C160.026 30.6979 160.339 31.7396 160.391 32.9062H157.641C157.589 32.2083 157.391 31.5781 157.047 31.0156C156.714 30.4531 156.255 30.0052 155.672 29.6719C155.099 29.3281 154.427 29.1562 153.656 29.1562C152.771 29.1562 152.026 29.3333 151.422 29.6875C150.828 30.0312 150.354 30.5 150 31.0938C149.656 31.6771 149.406 32.3281 149.25 33.0469C149.104 33.7552 149.031 34.4792 149.031 35.2188V35.875C149.031 36.6146 149.104 37.3438 149.25 38.0625C149.396 38.7812 149.641 39.4323 149.984 40.0156C150.339 40.599 150.812 41.0677 151.406 41.4219C152.01 41.7656 152.76 41.9375 153.656 41.9375ZM171.578 36.5625H166.031L166 34.25H170.531C171.427 34.25 172.172 34.1615 172.766 33.9844C173.37 33.8073 173.823 33.5417 174.125 33.1875C174.427 32.8333 174.578 32.3958 174.578 31.875C174.578 31.4688 174.49 31.1146 174.312 30.8125C174.146 30.5 173.891 30.2448 173.547 30.0469C173.203 29.8385 172.776 29.6875 172.266 29.5938C171.766 29.4896 171.177 29.4375 170.5 29.4375H166.797V44H163.906V27.0938H170.5C171.573 27.0938 172.536 27.1875 173.391 27.375C174.255 27.5625 174.99 27.849 175.594 28.2344C176.208 28.6094 176.677 29.0885 177 29.6719C177.323 30.2552 177.484 30.9427 177.484 31.7344C177.484 32.2448 177.38 32.7292 177.172 33.1875C176.964 33.6458 176.656 34.0521 176.25 34.4062C175.844 34.7604 175.344 35.0521 174.75 35.2812C174.156 35.5 173.474 35.6406 172.703 35.7031L171.578 36.5625ZM171.578 44H164.984L166.422 41.6562H171.578C172.38 41.6562 173.047 41.5573 173.578 41.3594C174.109 41.151 174.505 40.8594 174.766 40.4844C175.036 40.099 175.172 39.6406 175.172 39.1094C175.172 38.5781 175.036 38.125 174.766 37.75C174.505 37.3646 174.109 37.0729 173.578 36.875C173.047 36.6667 172.38 36.5625 171.578 36.5625H167.188L167.219 34.25H172.703L173.75 35.125C174.677 35.1979 175.464 35.4271 176.109 35.8125C176.755 36.1979 177.245 36.6875 177.578 37.2812C177.911 37.8646 178.078 38.5 178.078 39.1875C178.078 39.9792 177.927 40.6771 177.625 41.2812C177.333 41.8854 176.906 42.3906 176.344 42.7969C175.781 43.1927 175.099 43.4948 174.297 43.7031C173.495 43.901 172.589 44 171.578 44ZM181.188 35.7344V35.375C181.188 34.1562 181.365 33.026 181.719 31.9844C182.073 30.9323 182.583 30.0208 183.25 29.25C183.917 28.4688 184.724 27.8646 185.672 27.4375C186.62 27 187.682 26.7812 188.859 26.7812C190.047 26.7812 191.115 27 192.062 27.4375C193.021 27.8646 193.833 28.4688 194.5 29.25C195.177 30.0208 195.693 30.9323 196.047 31.9844C196.401 33.026 196.578 34.1562 196.578 35.375V35.7344C196.578 36.9531 196.401 38.0833 196.047 39.125C195.693 40.1667 195.177 41.0781 194.5 41.8594C193.833 42.6302 193.026 43.2344 192.078 43.6719C191.141 44.099 190.078 44.3125 188.891 44.3125C187.703 44.3125 186.635 44.099 185.688 43.6719C184.74 43.2344 183.927 42.6302 183.25 41.8594C182.583 41.0781 182.073 40.1667 181.719 39.125C181.365 38.0833 181.188 36.9531 181.188 35.7344ZM184.078 35.375V35.7344C184.078 36.5781 184.177 37.375 184.375 38.125C184.573 38.8646 184.87 39.5208 185.266 40.0938C185.672 40.6667 186.177 41.1198 186.781 41.4531C187.385 41.776 188.089 41.9375 188.891 41.9375C189.682 41.9375 190.375 41.776 190.969 41.4531C191.573 41.1198 192.073 40.6667 192.469 40.0938C192.865 39.5208 193.161 38.8646 193.359 38.125C193.568 37.375 193.672 36.5781 193.672 35.7344V35.375C193.672 34.5417 193.568 33.7552 193.359 33.0156C193.161 32.2656 192.859 31.6042 192.453 31.0312C192.057 30.4479 191.557 29.9896 190.953 29.6562C190.359 29.3229 189.661 29.1562 188.859 29.1562C188.068 29.1562 187.37 29.3229 186.766 29.6562C186.172 29.9896 185.672 30.4479 185.266 31.0312C184.87 31.6042 184.573 32.2656 184.375 33.0156C184.177 33.7552 184.078 34.5417 184.078 35.375ZM207.219 44.3125C206.042 44.3125 204.974 44.1146 204.016 43.7188C203.068 43.3125 202.25 42.7448 201.562 42.0156C200.885 41.2865 200.365 40.4219 200 39.4219C199.635 38.4219 199.453 37.3281 199.453 36.1406V35.4844C199.453 34.1094 199.656 32.8854 200.062 31.8125C200.469 30.7292 201.021 29.8125 201.719 29.0625C202.417 28.3125 203.208 27.7448 204.094 27.3594C204.979 26.974 205.896 26.7812 206.844 26.7812C208.052 26.7812 209.094 26.9896 209.969 27.4062C210.854 27.8229 211.578 28.4062 212.141 29.1562C212.703 29.8958 213.12 30.7708 213.391 31.7812C213.661 32.7812 213.797 33.875 213.797 35.0625V36.3594H201.172V34H210.906V33.7812C210.865 33.0312 210.708 32.3021 210.438 31.5938C210.177 30.8854 209.76 30.3021 209.188 29.8438C208.615 29.3854 207.833 29.1562 206.844 29.1562C206.188 29.1562 205.583 29.2969 205.031 29.5781C204.479 29.849 204.005 30.2552 203.609 30.7969C203.214 31.3385 202.906 32 202.688 32.7812C202.469 33.5625 202.359 34.4635 202.359 35.4844V36.1406C202.359 36.9427 202.469 37.6979 202.688 38.4062C202.917 39.1042 203.245 39.7188 203.672 40.25C204.109 40.7812 204.635 41.1979 205.25 41.5C205.875 41.8021 206.583 41.9531 207.375 41.9531C208.396 41.9531 209.26 41.7448 209.969 41.3281C210.677 40.9115 211.297 40.3542 211.828 39.6562L213.578 41.0469C213.214 41.599 212.75 42.125 212.188 42.625C211.625 43.125 210.932 43.5312 210.109 43.8438C209.297 44.1562 208.333 44.3125 207.219 44.3125ZM201.797 22.5781C201.797 22.1094 201.943 21.7135 202.234 21.3906C202.526 21.0677 202.948 20.9062 203.5 20.9062C204.062 20.9062 204.49 21.0677 204.781 21.3906C205.073 21.7135 205.219 22.1094 205.219 22.5781C205.219 23.026 205.073 23.4115 204.781 23.7344C204.49 24.0469 204.062 24.2031 203.5 24.2031C202.948 24.2031 202.526 24.0469 202.234 23.7344C201.943 23.4115 201.797 23.026 201.797 22.5781ZM208.531 22.6094C208.531 22.1406 208.672 21.7448 208.953 21.4219C209.245 21.099 209.672 20.9375 210.234 20.9375C210.786 20.9375 211.208 21.099 211.5 21.4219C211.802 21.7448 211.953 22.1406 211.953 22.6094C211.953 23.0573 211.802 23.4427 211.5 23.7656C211.208 24.0781 210.786 24.2344 210.234 24.2344C209.672 24.2344 209.245 24.0781 208.953 23.7656C208.672 23.4427 208.531 23.0573 208.531 22.6094ZM29.0938 62.0938V79H26.1875V62.0938H29.0938ZM34.7656 62.0938V64.4375H20.625V62.0938H34.7656ZM43.375 79.3125C42.1979 79.3125 41.1302 79.1146 40.1719 78.7188C39.224 78.3125 38.4062 77.7448 37.7188 77.0156C37.0417 76.2865 36.5208 75.4219 36.1562 74.4219C35.7917 73.4219 35.6094 72.3281 35.6094 71.1406V70.4844C35.6094 69.1094 35.8125 67.8854 36.2188 66.8125C36.625 65.7292 37.1771 64.8125 37.875 64.0625C38.5729 63.3125 39.3646 62.7448 40.25 62.3594C41.1354 61.974 42.0521 61.7812 43 61.7812C44.2083 61.7812 45.25 61.9896 46.125 62.4062C47.0104 62.8229 47.7344 63.4062 48.2969 64.1562C48.8594 64.8958 49.276 65.7708 49.5469 66.7812C49.8177 67.7812 49.9531 68.875 49.9531 70.0625V71.3594H37.3281V69H47.0625V68.7812C47.0208 68.0312 46.8646 67.3021 46.5938 66.5938C46.3333 65.8854 45.9167 65.3021 45.3438 64.8438C44.7708 64.3854 43.9896 64.1562 43 64.1562C42.3438 64.1562 41.7396 64.2969 41.1875 64.5781C40.6354 64.849 40.1615 65.2552 39.7656 65.7969C39.3698 66.3385 39.0625 67 38.8438 67.7812C38.625 68.5625 38.5156 69.4635 38.5156 70.4844V71.1406C38.5156 71.9427 38.625 72.6979 38.8438 73.4062C39.0729 74.1042 39.401 74.7188 39.8281 75.25C40.2656 75.7812 40.7917 76.1979 41.4062 76.5C42.0312 76.8021 42.7396 76.9531 43.5312 76.9531C44.5521 76.9531 45.4167 76.7448 46.125 76.3281C46.8333 75.9115 47.4531 75.3542 47.9844 74.6562L49.7344 76.0469C49.3698 76.599 48.9062 77.125 48.3438 77.625C47.7812 78.125 47.0885 78.5312 46.2656 78.8438C45.4531 79.1562 44.4896 79.3125 43.375 79.3125ZM64.625 62.0938V64.4844H56.4531V62.0938H64.625ZM67.1719 62.0938V79H64.2812V62.0938H67.1719ZM55.75 62.0938H58.6562L58.2188 70.25C58.1458 71.5104 58.026 72.625 57.8594 73.5938C57.7031 74.5521 57.4844 75.375 57.2031 76.0625C56.9323 76.75 56.5885 77.3125 56.1719 77.75C55.7656 78.1771 55.276 78.4948 54.7031 78.7031C54.1302 78.901 53.4688 79 52.7188 79H51.8125V76.4531L52.4375 76.4062C52.8854 76.375 53.2656 76.2708 53.5781 76.0938C53.901 75.9167 54.1719 75.6562 54.3906 75.3125C54.6094 74.9583 54.7865 74.5052 54.9219 73.9531C55.0677 73.401 55.1771 72.7448 55.25 71.9844C55.3333 71.224 55.3958 70.3385 55.4375 69.3281L55.75 62.0938ZM71.0625 70.7344V70.375C71.0625 69.1562 71.2396 68.026 71.5938 66.9844C71.9479 65.9323 72.4583 65.0208 73.125 64.25C73.7917 63.4688 74.599 62.8646 75.5469 62.4375C76.4948 62 77.5573 61.7812 78.7344 61.7812C79.9219 61.7812 80.9896 62 81.9375 62.4375C82.8958 62.8646 83.7083 63.4688 84.375 64.25C85.0521 65.0208 85.5677 65.9323 85.9219 66.9844C86.276 68.026 86.4531 69.1562 86.4531 70.375V70.7344C86.4531 71.9531 86.276 73.0833 85.9219 74.125C85.5677 75.1667 85.0521 76.0781 84.375 76.8594C83.7083 77.6302 82.901 78.2344 81.9531 78.6719C81.0156 79.099 79.9531 79.3125 78.7656 79.3125C77.5781 79.3125 76.5104 79.099 75.5625 78.6719C74.6146 78.2344 73.8021 77.6302 73.125 76.8594C72.4583 76.0781 71.9479 75.1667 71.5938 74.125C71.2396 73.0833 71.0625 71.9531 71.0625 70.7344ZM73.9531 70.375V70.7344C73.9531 71.5781 74.0521 72.375 74.25 73.125C74.4479 73.8646 74.7448 74.5208 75.1406 75.0938C75.5469 75.6667 76.0521 76.1198 76.6562 76.4531C77.2604 76.776 77.9635 76.9375 78.7656 76.9375C79.5573 76.9375 80.25 76.776 80.8438 76.4531C81.4479 76.1198 81.9479 75.6667 82.3438 75.0938C82.7396 74.5208 83.0365 73.8646 83.2344 73.125C83.4427 72.375 83.5469 71.5781 83.5469 70.7344V70.375C83.5469 69.5417 83.4427 68.7552 83.2344 68.0156C83.0365 67.2656 82.7344 66.6042 82.3281 66.0312C81.9323 65.4479 81.4323 64.9896 80.8281 64.6562C80.2344 64.3229 79.5365 64.1562 78.7344 64.1562C77.9427 64.1562 77.2448 64.3229 76.6406 64.6562C76.0469 64.9896 75.5469 65.4479 75.1406 66.0312C74.7448 66.6042 74.4479 67.2656 74.25 68.0156C74.0521 68.7552 73.9531 69.5417 73.9531 70.375ZM104.328 70.9219H101.219V69.1406H104.094C104.896 69.1406 105.531 69.0417 106 68.8438C106.469 68.6354 106.802 68.349 107 67.9844C107.198 67.6198 107.297 67.1927 107.297 66.7031C107.297 66.2656 107.182 65.8542 106.953 65.4688C106.734 65.0729 106.38 64.7552 105.891 64.5156C105.401 64.2656 104.745 64.1406 103.922 64.1406C103.255 64.1406 102.651 64.2604 102.109 64.5C101.568 64.7292 101.135 65.0469 100.812 65.4531C100.5 65.849 100.344 66.2969 100.344 66.7969H97.4531C97.4531 65.7656 97.7448 64.8802 98.3281 64.1406C98.9219 63.3906 99.7083 62.8125 100.688 62.4062C101.677 62 102.755 61.7969 103.922 61.7969C104.901 61.7969 105.776 61.9062 106.547 62.125C107.328 62.3333 107.99 62.6458 108.531 63.0625C109.073 63.4688 109.484 63.9792 109.766 64.5938C110.057 65.1979 110.203 65.901 110.203 66.7031C110.203 67.276 110.068 67.8177 109.797 68.3281C109.526 68.8385 109.135 69.2917 108.625 69.6875C108.115 70.0729 107.495 70.375 106.766 70.5938C106.047 70.8125 105.234 70.9219 104.328 70.9219ZM101.219 69.8281H104.328C105.339 69.8281 106.229 69.9271 107 70.125C107.771 70.3125 108.417 70.5938 108.938 70.9688C109.458 71.3438 109.849 71.8073 110.109 72.3594C110.38 72.901 110.516 73.526 110.516 74.2344C110.516 75.026 110.354 75.7396 110.031 76.375C109.719 77 109.271 77.5312 108.688 77.9688C108.104 78.4062 107.406 78.7396 106.594 78.9688C105.792 79.1979 104.901 79.3125 103.922 79.3125C102.828 79.3125 101.766 79.125 100.734 78.75C99.7031 78.375 98.8542 77.7969 98.1875 77.0156C97.5208 76.224 97.1875 75.2188 97.1875 74H100.078C100.078 74.5104 100.24 74.9948 100.562 75.4531C100.885 75.9115 101.333 76.2812 101.906 76.5625C102.49 76.8438 103.161 76.9844 103.922 76.9844C104.734 76.9844 105.411 76.8594 105.953 76.6094C106.495 76.3594 106.901 76.026 107.172 75.6094C107.453 75.1927 107.594 74.7396 107.594 74.25C107.594 73.6146 107.469 73.1042 107.219 72.7188C106.969 72.3333 106.583 72.0521 106.062 71.875C105.552 71.6875 104.896 71.5938 104.094 71.5938H101.219V69.8281ZM124.234 76.1094V67.4062C124.234 66.7396 124.099 66.1615 123.828 65.6719C123.568 65.1719 123.172 64.7865 122.641 64.5156C122.109 64.2448 121.453 64.1094 120.672 64.1094C119.943 64.1094 119.302 64.2344 118.75 64.4844C118.208 64.7344 117.781 65.0625 117.469 65.4688C117.167 65.875 117.016 66.3125 117.016 66.7812H114.125C114.125 66.1771 114.281 65.5781 114.594 64.9844C114.906 64.3906 115.354 63.8542 115.938 63.375C116.531 62.8854 117.24 62.5 118.062 62.2188C118.896 61.9271 119.823 61.7812 120.844 61.7812C122.073 61.7812 123.156 61.9896 124.094 62.4062C125.042 62.8229 125.781 63.4531 126.312 64.2969C126.854 65.1302 127.125 66.1771 127.125 67.4375V75.3125C127.125 75.875 127.172 76.474 127.266 77.1094C127.37 77.7448 127.521 78.2917 127.719 78.75V79H124.703C124.557 78.6667 124.443 78.224 124.359 77.6719C124.276 77.1094 124.234 76.5885 124.234 76.1094ZM124.734 68.75L124.766 70.7812H121.844C121.021 70.7812 120.286 70.849 119.641 70.9844C118.995 71.1094 118.453 71.3021 118.016 71.5625C117.578 71.8229 117.245 72.151 117.016 72.5469C116.786 72.9323 116.672 73.3854 116.672 73.9062C116.672 74.4375 116.792 74.9219 117.031 75.3594C117.271 75.7969 117.63 76.1458 118.109 76.4062C118.599 76.6562 119.198 76.7812 119.906 76.7812C120.792 76.7812 121.573 76.5938 122.25 76.2188C122.927 75.8438 123.464 75.3854 123.859 74.8438C124.266 74.3021 124.484 73.776 124.516 73.2656L125.75 74.6562C125.677 75.0938 125.479 75.5781 125.156 76.1094C124.833 76.6406 124.401 77.151 123.859 77.6406C123.328 78.1198 122.693 78.5208 121.953 78.8438C121.224 79.1562 120.401 79.3125 119.484 79.3125C118.339 79.3125 117.333 79.0885 116.469 78.6406C115.615 78.1927 114.948 77.5938 114.469 76.8438C114 76.0833 113.766 75.2344 113.766 74.2969C113.766 73.3906 113.943 72.5938 114.297 71.9062C114.651 71.2083 115.161 70.6302 115.828 70.1719C116.495 69.7031 117.297 69.349 118.234 69.1094C119.172 68.8698 120.219 68.75 121.375 68.75H124.734ZM150.875 62.0938V64.4844H142.328V62.0938H150.875ZM142.75 62.0938V79H139.859V62.0938H142.75ZM153.438 62.0938V79H150.531V62.0938H153.438ZM157.312 70.7344V70.375C157.312 69.1562 157.49 68.026 157.844 66.9844C158.198 65.9323 158.708 65.0208 159.375 64.25C160.042 63.4688 160.849 62.8646 161.797 62.4375C162.745 62 163.807 61.7812 164.984 61.7812C166.172 61.7812 167.24 62 168.188 62.4375C169.146 62.8646 169.958 63.4688 170.625 64.25C171.302 65.0208 171.818 65.9323 172.172 66.9844C172.526 68.026 172.703 69.1562 172.703 70.375V70.7344C172.703 71.9531 172.526 73.0833 172.172 74.125C171.818 75.1667 171.302 76.0781 170.625 76.8594C169.958 77.6302 169.151 78.2344 168.203 78.6719C167.266 79.099 166.203 79.3125 165.016 79.3125C163.828 79.3125 162.76 79.099 161.812 78.6719C160.865 78.2344 160.052 77.6302 159.375 76.8594C158.708 76.0781 158.198 75.1667 157.844 74.125C157.49 73.0833 157.312 71.9531 157.312 70.7344ZM160.203 70.375V70.7344C160.203 71.5781 160.302 72.375 160.5 73.125C160.698 73.8646 160.995 74.5208 161.391 75.0938C161.797 75.6667 162.302 76.1198 162.906 76.4531C163.51 76.776 164.214 76.9375 165.016 76.9375C165.807 76.9375 166.5 76.776 167.094 76.4531C167.698 76.1198 168.198 75.6667 168.594 75.0938C168.99 74.5208 169.286 73.8646 169.484 73.125C169.693 72.375 169.797 71.5781 169.797 70.7344V70.375C169.797 69.5417 169.693 68.7552 169.484 68.0156C169.286 67.2656 168.984 66.6042 168.578 66.0312C168.182 65.4479 167.682 64.9896 167.078 64.6562C166.484 64.3229 165.786 64.1562 164.984 64.1562C164.193 64.1562 163.495 64.3229 162.891 64.6562C162.297 64.9896 161.797 65.4479 161.391 66.0312C160.995 66.6042 160.698 67.2656 160.5 68.0156C160.302 68.7552 160.203 69.5417 160.203 70.375ZM187.375 62.0938V64.4844H179.203V62.0938H187.375ZM189.922 62.0938V79H187.031V62.0938H189.922ZM178.5 62.0938H181.406L180.969 70.25C180.896 71.5104 180.776 72.625 180.609 73.5938C180.453 74.5521 180.234 75.375 179.953 76.0625C179.682 76.75 179.339 77.3125 178.922 77.75C178.516 78.1771 178.026 78.4948 177.453 78.7031C176.88 78.901 176.219 79 175.469 79H174.562V76.4531L175.188 76.4062C175.635 76.375 176.016 76.2708 176.328 76.0938C176.651 75.9167 176.922 75.6562 177.141 75.3125C177.359 74.9583 177.536 74.5052 177.672 73.9531C177.818 73.401 177.927 72.7448 178 71.9844C178.083 71.224 178.146 70.3385 178.188 69.3281L178.5 62.0938ZM205.5 62.0938V64.4844H197.688V79H194.797V62.0938H205.5ZM206.938 70.7344V70.375C206.938 69.1562 207.115 68.026 207.469 66.9844C207.823 65.9323 208.333 65.0208 209 64.25C209.667 63.4688 210.474 62.8646 211.422 62.4375C212.37 62 213.432 61.7812 214.609 61.7812C215.797 61.7812 216.865 62 217.812 62.4375C218.771 62.8646 219.583 63.4688 220.25 64.25C220.927 65.0208 221.443 65.9323 221.797 66.9844C222.151 68.026 222.328 69.1562 222.328 70.375V70.7344C222.328 71.9531 222.151 73.0833 221.797 74.125C221.443 75.1667 220.927 76.0781 220.25 76.8594C219.583 77.6302 218.776 78.2344 217.828 78.6719C216.891 79.099 215.828 79.3125 214.641 79.3125C213.453 79.3125 212.385 79.099 211.438 78.6719C210.49 78.2344 209.677 77.6302 209 76.8594C208.333 76.0781 207.823 75.1667 207.469 74.125C207.115 73.0833 206.938 71.9531 206.938 70.7344ZM209.828 70.375V70.7344C209.828 71.5781 209.927 72.375 210.125 73.125C210.323 73.8646 210.62 74.5208 211.016 75.0938C211.422 75.6667 211.927 76.1198 212.531 76.4531C213.135 76.776 213.839 76.9375 214.641 76.9375C215.432 76.9375 216.125 76.776 216.719 76.4531C217.323 76.1198 217.823 75.6667 218.219 75.0938C218.615 74.5208 218.911 73.8646 219.109 73.125C219.318 72.375 219.422 71.5781 219.422 70.7344V70.375C219.422 69.5417 219.318 68.7552 219.109 68.0156C218.911 67.2656 218.609 66.6042 218.203 66.0312C217.807 65.4479 217.307 64.9896 216.703 64.6562C216.109 64.3229 215.411 64.1562 214.609 64.1562C213.818 64.1562 213.12 64.3229 212.516 64.6562C211.922 64.9896 211.422 65.4479 211.016 66.0312C210.62 66.6042 210.323 67.2656 210.125 68.0156C209.927 68.7552 209.828 69.5417 209.828 70.375ZM227.875 62.0938H230.766L230.516 68.4219C230.453 70.026 230.271 71.4115 229.969 72.5781C229.667 73.7448 229.281 74.7396 228.812 75.5625C228.344 76.375 227.818 77.0573 227.234 77.6094C226.661 78.1615 226.068 78.625 225.453 79H224.016L224.094 76.6406L224.688 76.625C225.031 76.2188 225.365 75.8021 225.688 75.375C226.01 74.9375 226.307 74.4219 226.578 73.8281C226.849 73.224 227.073 72.4896 227.25 71.625C227.438 70.75 227.557 69.6823 227.609 68.4219L227.875 62.0938ZM228.594 62.0938H238.766V79H235.875V64.7656H228.594V62.0938ZM223.359 76.625H240.938V83.9844H238.047V79H226.25V83.9844H223.344L223.359 76.625ZM254.109 76.1094V67.4062C254.109 66.7396 253.974 66.1615 253.703 65.6719C253.443 65.1719 253.047 64.7865 252.516 64.5156C251.984 64.2448 251.328 64.1094 250.547 64.1094C249.818 64.1094 249.177 64.2344 248.625 64.4844C248.083 64.7344 247.656 65.0625 247.344 65.4688C247.042 65.875 246.891 66.3125 246.891 66.7812H244C244 66.1771 244.156 65.5781 244.469 64.9844C244.781 64.3906 245.229 63.8542 245.812 63.375C246.406 62.8854 247.115 62.5 247.938 62.2188C248.771 61.9271 249.698 61.7812 250.719 61.7812C251.948 61.7812 253.031 61.9896 253.969 62.4062C254.917 62.8229 255.656 63.4531 256.188 64.2969C256.729 65.1302 257 66.1771 257 67.4375V75.3125C257 75.875 257.047 76.474 257.141 77.1094C257.245 77.7448 257.396 78.2917 257.594 78.75V79H254.578C254.432 78.6667 254.318 78.224 254.234 77.6719C254.151 77.1094 254.109 76.5885 254.109 76.1094ZM254.609 68.75L254.641 70.7812H251.719C250.896 70.7812 250.161 70.849 249.516 70.9844C248.87 71.1094 248.328 71.3021 247.891 71.5625C247.453 71.8229 247.12 72.151 246.891 72.5469C246.661 72.9323 246.547 73.3854 246.547 73.9062C246.547 74.4375 246.667 74.9219 246.906 75.3594C247.146 75.7969 247.505 76.1458 247.984 76.4062C248.474 76.6562 249.073 76.7812 249.781 76.7812C250.667 76.7812 251.448 76.5938 252.125 76.2188C252.802 75.8438 253.339 75.3854 253.734 74.8438C254.141 74.3021 254.359 73.776 254.391 73.2656L255.625 74.6562C255.552 75.0938 255.354 75.5781 255.031 76.1094C254.708 76.6406 254.276 77.151 253.734 77.6406C253.203 78.1198 252.568 78.5208 251.828 78.8438C251.099 79.1562 250.276 79.3125 249.359 79.3125C248.214 79.3125 247.208 79.0885 246.344 78.6406C245.49 78.1927 244.823 77.5938 244.344 76.8438C243.875 76.0833 243.641 75.2344 243.641 74.2969C243.641 73.3906 243.818 72.5938 244.172 71.9062C244.526 71.2083 245.036 70.6302 245.703 70.1719C246.37 69.7031 247.172 69.349 248.109 69.1094C249.047 68.8698 250.094 68.75 251.25 68.75H254.609ZM264.984 56.25L264.781 72.5781H262.172L261.953 56.25H264.984ZM261.859 77.5469C261.859 77.0781 262 76.6823 262.281 76.3594C262.573 76.0365 263 75.875 263.562 75.875C264.115 75.875 264.536 76.0365 264.828 76.3594C265.13 76.6823 265.281 77.0781 265.281 77.5469C265.281 77.9948 265.13 78.3802 264.828 78.7031C264.536 79.026 264.115 79.1875 263.562 79.1875C263 79.1875 262.573 79.026 262.281 78.7031C262 78.3802 261.859 77.9948 261.859 77.5469Z"
            fill="#202020"
          />
          <path
            d="M120.31 119.725C118.709 120.997 116.456 119.329 117.206 117.426L129.483 86.2676C129.965 85.0437 131.477 84.6107 132.534 85.3937L146.486 95.7288C147.543 96.5118 147.57 98.0844 146.54 98.9023L120.31 119.725Z"
            fill="#BCEC30"
          />
    </symbol>

</svg>