<svg width="41.666504" height="41.666626" viewBox="0 0 41.6665 41.6666" fill="none" xmlns="http://www.w3.org/2000/svg" xmlns:xlink="http://www.w3.org/1999/xlink">
	<desc>
			Created with Pixso.
	</desc>
	<defs/>
	<path id="Icon" d="M41.66 20.83C41.66 32.33 32.33 41.66 20.83 41.66C9.32 41.66 0 32.33 0 20.83C0 9.32 9.32 0 20.83 0C32.33 0 41.66 9.32 41.66 20.83ZM33.33 28.27C33.33 31.72 27.73 35.41 20.83 35.41C13.92 35.41 8.33 31.72 8.33 28.27C8.33 24.82 13.92 22.91 20.83 22.91C27.73 22.91 33.33 24.82 33.33 28.27ZM20.83 18.75C24.28 18.75 27.08 15.95 27.08 12.5C27.08 9.04 24.28 6.25 20.83 6.25C17.38 6.25 14.58 9.04 14.58 12.5C14.58 15.95 17.38 18.75 20.83 18.75Z" fill="#D9D9D9" fill-opacity="1.000000" fill-rule="evenodd"/>
</svg>
